<svg height="512pt" viewBox="-8 0 512 512.00021" width="512pt" xmlns="http://www.w3.org/2000/svg"><path d="m210.207031 429.609375c-4.390625-.886719-9.238281 1.304687-11.191406 5.980469-1.769531 4.257812-.433594 9.320312 3.683594 12.144531 5.449219 3.5625 12.417969 1.191406 14.789062-4.492187 2.4375-5.945313-1.175781-12.394532-7.28125-13.632813zm0 0"/><path d="m495.773438 285.199219c-3.058594-21.472657-21.554688-38.035157-43.855469-38.035157h-3.546875c0-6.898437 0-55.335937 0-62.324218 0-19.527344-15.882813-35.414063-35.410156-35.414063h-6.683594l18.34375-26.292969c11.460937-16.425781 7.097656-39.027343-9.65625-50.007812-112.019532-73.414062-104.363282-68.761719-109.074219-70.632812-15.113281-6.011719-33.066406-.941407-42.542969 12.996093-.148437.21875-26.75 39.347657-28.003906 41.191407l-35.238281-23.09375c-14.019531-9.1875-33.085938-5.382813-42.507813 8.476562l-72.996094 107.363281h-42.40625c-23.269531 0-42.195312 18.929688-42.195312 42.195313 0 .304687.015625.605468.0234375.914062-.0078125.152344-.0234375.304688-.0234375.457032v275.960937c0 23.738281 19.3125 43.046875 43.046875 43.046875h362.28125c23.734375 0 43.042969-19.308594 43.042969-43.046875v-23.945313h2.019531c25.273437 0 45.832031-20.5625 45.832031-45.835937 0-121.253906.222656-111.816406-.449218-113.972656zm-43.855469-18.035157c13.402343 0 24.304687 10.902344 24.304687 24.304688-.058594.5.578125 7.777344-3.578125 14.617188-8.351562 13.726562-23.582031 11.730468-24.269531 11.894531v-50.816407zm-199.789063-199.597656c30.160156 17.714844 69.042969 10.25 90.261719-18.085937l21.726563 14.238281c-16.589844 28.65625-9.472657 65.722656 17.714843 85.789062l-16.679687 23.90625h-184.988282c1.9375-2.855468 62.441407-91.839843 71.964844-105.847656zm27.761719-40.832031c4.722656-6.949219 14.285156-8.859375 21.3125-4.25l24.417969 16.003906c-14.945313 18.914063-41.296875 24.046875-62.21875 12.496094zm124.109375 63.121094c7.316406 4.792969 9.222656 14.660156 4.21875 21.832031l-14.933594 21.402344c-18.210937-13.800782-23.167968-38.726563-12.40625-58.390625zm-229.859375-36.550781c3.324219-4.890626 10.054687-6.230469 15-2.988282l34.953125 22.90625-68.117188 100.191406h-63.496093zm-131.945313 116.125h28.804688c-4.53125 7.230468-7.15625 9.003906-7.398438 13.433593-.316406 5.730469 4.25 10.554688 9.984376 10.554688h296.785156c3.269531 0 6.332031-1.601563 8.199218-4.28125l13.75-19.707031h20.640626c8.496093 0 15.410156 6.914062 15.410156 15.410156v28.972656h-386.175782c-29.917968 0-28.777343-44.382812 0-44.382812zm386.175782 299.523437c0 12.707031-10.339844 23.042969-23.042969 23.042969h-362.28125c-12.707031 0-23.042969-10.335938-23.042969-23.042969v-19.535156h148.246094c5.519531 0 10-4.480469 10-10 0-5.523438-4.480469-10.003907-10-10.003907h-148.246094v-201.863281c4.230469 2.609375 8.9375 4.429688 13.65625 5.394531 10.410156 2.144532 5.65625.164063 394.710938.867188v84.167969h-36.601563c-35.019531 0-63.511719 28.492187-63.511719 63.511719 0 35.023437 28.492188 63.515624 63.511719 63.515624h36.601563zm47.851562-69.78125c0 14.242187-11.589844 25.832031-25.832031 25.832031h-58.621094c-23.988281 0-43.507812-19.519531-43.507812-43.511718 0-23.988282 19.519531-43.507813 43.507812-43.507813h59.769531c9.039063 0 17.605469-2.746094 24.683594-7.453125zm0 0"/><path d="m395.285156 346.316406c-19.429687 0-35.234375 15.804688-35.234375 35.234375 0 19.429688 15.808594 35.234375 35.234375 35.234375 19.429688 0 35.238282-15.804687 35.238282-35.234375 0-19.429687-15.808594-35.234375-35.238282-35.234375zm0 50.46875c-8.398437 0-15.230468-6.835937-15.230468-15.234375 0-8.398437 6.832031-15.234375 15.230468-15.234375 8.402344 0 15.234375 6.835938 15.234375 15.234375 0 8.398438-6.832031 15.234375-15.234375 15.234375zm0 0"/></svg>