<?xml version="1.0" encoding="iso-8859-1"?>
<!-- Generator: Adobe Illustrator 19.0.0, SVG Export Plug-In . SVG Version: 6.00 Build 0)  -->
<svg version="1.1" id="Capa_1" xmlns="http://www.w3.org/2000/svg" xmlns:xlink="http://www.w3.org/1999/xlink" x="0px" y="0px"
	 viewBox="0 0 512 512" style="enable-background:new 0 0 512 512;" xml:space="preserve">
<g>
	<g>
		<path d="M336.655,202.803c33.946-30.949,79.852-72.806,84.036-172.803H451V0H61v30h30.309
			c4.184,99.997,50.09,141.854,84.036,172.803C198.116,223.564,211,236.271,211,256s-12.884,32.436-35.655,53.197
			C141.399,340.146,95.493,382.003,91.309,482H61v30h390v-30h-30.309c-4.184-99.997-50.09-141.854-84.036-172.803
			C313.884,288.436,301,275.729,301,256S313.884,223.564,336.655,202.803z M121.346,30h269.307
			c-1.311,28.282-6.319,51.101-13.573,70H134.919C127.666,81.101,122.657,58.282,121.346,30z M195.557,331.367
			C218.927,310.06,241,289.935,241,256v112.438c-4.633,0.956-9.21,2.347-13.677,4.195l-91.877,38.019
			C150.45,372.502,174.616,350.459,195.557,331.367z M390.653,482H121.347c0.583-12.576,1.895-24.075,3.813-34.625l113.634-47.021
			c11.094-4.591,23.316-4.591,34.412,0l113.634,47.021C388.758,457.925,390.07,469.424,390.653,482z M316.443,331.367
			c20.941,19.092,45.106,41.135,60.111,79.284l-91.877-38.019c-4.467-1.848-9.044-3.239-13.677-4.195V256
			C271,289.935,293.073,310.06,316.443,331.367z M277.653,226h-43.307c-8.283-17.539-23.245-31.194-38.79-45.367
			c-15.054-13.726-31.777-28.972-45.564-50.633h212.015c-13.787,21.661-30.51,36.908-45.564,50.633
			C300.898,194.806,285.936,208.461,277.653,226z"/>
	</g>
</g>
<g>
</g>
<g>
</g>
<g>
</g>
<g>
</g>
<g>
</g>
<g>
</g>
<g>
</g>
<g>
</g>
<g>
</g>
<g>
</g>
<g>
</g>
<g>
</g>
<g>
</g>
<g>
</g>
<g>
</g>
</svg>
