<?xml version="1.0" encoding="iso-8859-1"?>
<!-- Generator: Adobe Illustrator 19.0.0, SVG Export Plug-In . SVG Version: 6.00 Build 0)  -->
<svg version="1.1" id="Capa_1" xmlns="http://www.w3.org/2000/svg" xmlns:xlink="http://www.w3.org/1999/xlink" x="0px" y="0px"
	 viewBox="0 0 512 512" style="enable-background:new 0 0 512 512;" xml:space="preserve">
<g>
	<g>
		<polygon points="320.617,392.725 250.98,272.112 285.069,272.112 273.409,251.913 265.436,238.115 219.596,158.723 
			247.333,158.723 160.303,7.983 73.273,158.723 101.01,158.723 35.537,272.112 69.626,272.112 0,392.725 		"/>
	</g>
</g>
<g>
	<g>
		<polygon points="197.583,423.116 182.388,423.116 138.219,423.116 123.023,423.116 107.828,423.116 107.828,504.017 
			212.779,504.017 212.779,423.116 		"/>
	</g>
</g>
<g>
	<g>
		<polygon points="478.59,334.86 503.521,334.86 455.634,251.913 475.916,251.913 366.7,62.728 296.851,183.715 293.731,189.114 
			282.982,207.734 291.755,222.919 299.718,236.717 301.896,240.485 310.669,255.681 337.707,302.504 303.618,302.504 
			311.56,316.261 355.678,392.674 355.708,392.725 494.454,392.725 512,392.725 		"/>
	</g>
</g>
<g>
	<g>
		<polygon points="396.868,423.065 381.672,423.065 373.224,423.065 350.532,423.065 350.532,423.116 335.336,423.116 
			320.141,423.116 320.141,482.237 412.064,482.237 412.064,423.116 412.064,423.065 		"/>
	</g>
</g>
<g>
</g>
<g>
</g>
<g>
</g>
<g>
</g>
<g>
</g>
<g>
</g>
<g>
</g>
<g>
</g>
<g>
</g>
<g>
</g>
<g>
</g>
<g>
</g>
<g>
</g>
<g>
</g>
<g>
</g>
</svg>
