<svg id="Capa_1" enable-background="new 0 0 512 512" height="512" viewBox="0 0 512 512" width="512" xmlns="http://www.w3.org/2000/svg"><g><path d="m512 301.458-66.973-100.458h-113.027v-70h-61.076c-7.301-50.816-51.119-90-103.924-90s-96.623 39.184-103.924 90h-63.076v295h63.898c6.678 25.85 30.195 45 58.102 45 27.906 0 51.424-19.15 58.102-45h121.898 30 16.898c6.678 25.85 30.195 45 58.102 45 27.906 0 51.424-19.15 58.102-45h46.898zm-83.027-70.458 40 60h-136.973v-60zm-261.973-160c41.355 0 75 33.645 75 75s-33.645 75-75 75-75-33.645-75-75 33.645-75 75-75zm-103.924 90c7.301 50.816 51.119 90 103.924 90s96.623-39.184 103.924-90h31.076v130h-272v-130zm58.924 280c-16.542 0-30-13.458-30-30s13.458-30 30-30 30 13.458 30 30-13.458 30-30 30zm58.102-45c-6.678-25.85-30.195-45-58.102-45-27.906 0-51.424 19.15-58.102 45h-33.898v-75h272v75zm226.898 45c-16.542 0-30-13.458-30-30s13.458-30 30-30 30 13.458 30 30-13.458 30-30 30zm58.102-45c-6.678-25.85-30.195-45-58.102-45-27.906 0-51.424 19.15-58.102 45h-16.898v-75h150v75z"/><path d="m182 101h-30v30h-30v30h60z"/></g></svg>