<svg id="_x31_" enable-background="new 0 0 24 24" height="512" viewBox="0 0 24 24" width="512" xmlns="http://www.w3.org/2000/svg"><g><g><g><path d="m5.388 22h-2.888c-.276 0-.5-.224-.5-.5v-8.95c0-.276.224-.5.5-.5s.5.223.5.5v8.45h2.388c.276 0 .5.224.5.5s-.224.5-.5.5z"/></g></g></g><g><g><g><path d="m16.5 22h-7c-.276 0-.5-.224-.5-.5s.224-.5.5-.5h6.5v-10h-3.5c-.276 0-.5-.224-.5-.5s.224-.5.5-.5h4c.276 0 .5.224.5.5v11c0 .276-.224.5-.5.5z"/></g></g></g><g><g><g><path d="m23.5 22h-2c-.276 0-.5-.224-.5-.5s.224-.5.5-.5h1.5v-3.48c0-1.638-1.332-2.97-2.97-2.97h-3.03v6.45h.5c.276 0 .5.224.5.5s-.224.5-.5.5h-1c-.276 0-.5-.224-.5-.5v-7.45c0-.276.224-.5.5-.5h3.53c2.189 0 3.97 1.781 3.97 3.97v3.98c0 .276-.224.5-.5.5z"/></g></g></g><g><g><g><path d="m7.5 24c-1.378 0-2.5-1.122-2.5-2.5s1.122-2.5 2.5-2.5 2.5 1.122 2.5 2.5-1.122 2.5-2.5 2.5zm0-4c-.827 0-1.5.673-1.5 1.5s.673 1.5 1.5 1.5 1.5-.673 1.5-1.5-.673-1.5-1.5-1.5z"/></g></g></g><g><g><g><path d="m19.5 24c-1.378 0-2.5-1.122-2.5-2.5s1.122-2.5 2.5-2.5 2.5 1.122 2.5 2.5-1.122 2.5-2.5 2.5zm0-4c-.827 0-1.5.673-1.5 1.5s.673 1.5 1.5 1.5 1.5-.673 1.5-1.5-.673-1.5-1.5-1.5z"/></g></g></g><g><g><g><path d="m5.997 12c-.072 0-.144-.016-.21-.046l-5.497-2.554c-.177-.082-.29-.259-.29-.454v-5.892c0-.171.087-.33.231-.421.144-.093.326-.104.479-.033l5.497 2.553c.177.082.29.259.29.454v5.893c0 .171-.087.33-.231.421-.082.053-.176.079-.269.079zm-4.997-3.373 4.497 2.089v-4.79l-4.497-2.089z"/></g></g></g><g><g><g><path d="m6.003 12c-.094 0-.188-.026-.269-.079-.144-.091-.231-.25-.231-.421v-5.893c0-.194.113-.372.29-.454l5.497-2.553c.155-.071.336-.06.479.032.144.092.231.251.231.422v5.893c0 .194-.113.372-.29.454l-5.497 2.554c-.066.029-.138.045-.21.045zm.5-6.074v4.791l4.497-2.09v-4.79zm4.997 3.02h.01z"/></g></g></g><g><g><g><path d="m11.5 3.554c-.07 0-.142-.015-.21-.046l-5.287-2.457-5.293 2.456c-.25.117-.547.008-.664-.243-.116-.25-.007-.548.244-.664l5.503-2.554c.134-.062.288-.062.421 0l5.496 2.554c.25.117.359.414.243.664-.084.183-.265.29-.453.29z"/></g></g></g><g><g><g><path d="m9 7c-.276 0-.5-.224-.5-.5v-1.959l-5.155-2.46c-.249-.119-.355-.417-.236-.666.118-.25.417-.355.667-.236l5.406 2.579c.184.075.318.253.318.462v2.28c0 .276-.224.5-.5.5z"/></g></g></g></svg>