<svg enable-background="new 0 0 24 24" height="512" viewBox="0 0 24 24" width="512" xmlns="http://www.w3.org/2000/svg"><path d="m20.5 24h-17c-.827 0-1.5-.673-1.5-1.5v-14c0-.276.224-.5.5-.5h19c.276 0 .5.224.5.5v14c0 .827-.673 1.5-1.5 1.5zm-17.5-15v13.5c0 .276.224.5.5.5h17c.276 0 .5-.224.5-.5v-13.5z"/><path d="m23.5 9h-23c-.218 0-.412-.142-.477-.351s.012-.435.191-.56l11.5-8c.172-.119.399-.119.571 0l11.5 8c.179.125.257.352.191.56s-.258.351-.476.351zm-21.406-1h19.812l-9.906-6.891z"/><path d="m19 24h-7c-.276 0-.5-.224-.5-.5v-6c0-.276.224-.5.5-.5h7c.276 0 .5.224.5.5v6c0 .276-.224.5-.5.5zm-6.5-1h6v-5h-6z"/><path d="m15.5 18h-7c-.276 0-.5-.224-.5-.5v-6c0-.276.224-.5.5-.5h7c.276 0 .5.224.5.5v6c0 .276-.224.5-.5.5zm-6.5-1h6v-5h-6z"/><path d="m12 24h-7c-.276 0-.5-.224-.5-.5v-6c0-.276.224-.5.5-.5h7c.276 0 .5.224.5.5v6c0 .276-.224.5-.5.5zm-6.5-1h6v-5h-6z"/><path d="m12 13.5c-.276 0-.5-.224-.5-.5v-1.5c0-.276.224-.5.5-.5s.5.224.5.5v1.5c0 .276-.224.5-.5.5z"/><path d="m8.5 19.5c-.276 0-.5-.224-.5-.5v-1.5c0-.276.224-.5.5-.5s.5.224.5.5v1.5c0 .276-.224.5-.5.5z"/><path d="m15.5 19.5c-.276 0-.5-.224-.5-.5v-1.5c0-.276.224-.5.5-.5s.5.224.5.5v1.5c0 .276-.224.5-.5.5z"/></svg>